<?xml version="1.0" encoding="utf-8"?>
<!-- Generator: Adobe Illustrator 27.7.0, SVG Export Plug-In . SVG Version: 6.00 Build 0)  -->
<svg version="1.1" id="Layer_2_00000085208605455856528240000017664588914879882664_"
	 xmlns="http://www.w3.org/2000/svg" xmlns:xlink="http://www.w3.org/1999/xlink" x="0px" y="0px" viewBox="0 0 203 107"
	 style="enable-background:new 0 0 203 107;" xml:space="preserve">
<style type="text/css">
	.st0{fill:#191919;}
</style>
<path class="st0" d="M166.3,53.1L166.3,53.1c14-1.8,33.5-4.9,33.5-27.8c-0.1-20.2-15.3-25.1-49.1-25.1h-26.4c-0.9,0-3.4,0-4.3,0
	c0,0-20.4-0.5-35.9,0.3c-1.7,0.1-3.3,0.2-4.5,0.3C66.1,2.1,59.3,11,58.5,20.4c-0.1,4.1-0.1,5.4-0.1,6.6c0.7,14.3,11.2,23.6,31,35
	c19.3,11,26.9,16.6,26.9,28c0,11.5-2.2,14.2-16.7,14.2c-15.5,0-18.5-3.2-18.5-14.1V78.4c0-3.8-1.8-7.4-4.9-10L62.1,57
	c-2.6-2.1-4.4-4.1-9.3-4.3H25.5V0.9H0V106h25.5V55.9h23.7c4.9,0,8.9,2.8,8.9,7.7l0.2,25.7c0,8.5,8.2,16.1,19.2,16.8
	c15.1,1.2,38.5,0.7,38.5,0.7l39.6,0.2c29.9,0,47.4-2.2,47.4-25.2C202.8,58.6,186.2,55,166.3,53.1z M150.8,3L150.8,3
	c20.5,0.2,24.1,7.7,24.1,22.5c0,15.7-6.1,25.7-20.8,25.7h-8.3c-3.7,0-6.7-3-6.7-6.7V18.3c0-6.2-4.3-13.3-11.8-15.5L150.8,3z
	 M155.4,104.1L155.4,104.1l-29.8,0.1c8.4-2.6,12.2-9.5,13.1-17.1c0.4-2.7,0.3-5.1,0.2-6.8C138,66,127.8,56.4,108,45.1
	c-19.3-11-27.3-16.2-27.3-27.7S83.3,2.8,97.4,2.8c17.4,0,18.5,4.1,18.5,14.5v12.6c0,3.9,1.9,7.6,5.2,10.2l13.1,10.2
	c3.1,2.4,6.9,3.7,10.9,3.7h10.1c14.1,0,21.6,11.7,21.6,27.2C176.8,98.6,171.1,104.1,155.4,104.1z"/>
</svg>
